<svg xmlns="http://www.w3.org/2000/svg" xmlns:xlink="http://www.w3.org/1999/xlink" viewBox="0 0 28 31.456499"><defs><filter id="b" width="1" height="1.0328337" x="0" y="0"><feOffset dy="1" in="SourceAlpha"/><feColorMatrix values="0 0 0 0 0 0 0 0 0 0 0 0 0 0 0 0 0 0 0.5 0"/></filter><filter id="d" width="1" height="1.0328337" x="0" y="0"><feOffset dy="1" in="SourceAlpha"/><feComposite in2="SourceAlpha" k2="-1" k3="1" operator="arithmetic"/><feColorMatrix values="0 0 0 0 0.996078431 0 0 0 0 0.980392157 0 0 0 0 0.788235294 0 0 0 0.551628059 0"/></filter><linearGradient id="c" x1="18.00000035" x2="18.00000035" y1="3.88077961" y2="33.22650106" gradientUnits="userSpaceOnUse"><stop offset="0%" stop-color="#eedfa2"/><stop offset="58.853881%" stop-color="#a9935a"/><stop offset="100%" stop-color="#fee3a5"/></linearGradient><path id="a" d="m21.032 3.58225 7.937 4.583c1.876 1.083 3.031 3.084 3.031 5.25v9.166c0 2.166-1.155 4.167-3.031 5.25l-7.937 4.583c-1.876 1.083-4.187 1.083-6.063 0l-7.937-4.583c-1.876-1.083-3.032-3.084-3.032-5.25v-9.166c0-2.166 1.156-4.167 3.032-5.25l7.937-4.583c1.876-1.083 4.187-1.083 6.063 0zm-5.056 1.728-7.951 4.591c-1.253.723-2.025 2.06-2.025 3.506v9.182c0 1.446.772 2.783 2.025 3.506l7.951 4.591c1.253.723 2.796.723 4.049 0l7.951-4.591c1.253-.723 2.024-2.06 2.024-3.506v-9.182c0-1.446-.771-2.783-2.024-3.506l-7.951-4.591c-1.253-.723-2.796-.723-4.049 0zm3.583 3.198 5.883 3.396c.964.557 1.558 1.586 1.558 2.7v6.792c0 1.114-.594 2.143-1.558 2.7l-5.883 3.396c-.965.557-2.153.557-3.117 0l-5.883-3.396c-.965-.557-1.559-1.586-1.559-2.7v-6.792c0-1.114.594-2.143 1.559-2.7l5.883-3.396c.964-.557 2.152-.557 3.117 0zm1.441 6.492h-6v6h6z"/></defs><g fill-rule="evenodd" transform="translate(-4 -2.77)"><use xlink:href="#a" filter="url(#b)"/><use xlink:href="#a" fill="url(#c)"/><use xlink:href="#a" filter="url(#d)"/></g></svg>